<svg xmlns="http://www.w3.org/2000/svg" width="2874" height="1328" fill="none"><path stroke="url(#a)" stroke-opacity=".6" stroke-width=".805" d="M83.772 19.332h-64.44v64.44m64.44-64.44v64.44m0-64.44h64.439m-64.44 64.44H19.333m64.44 0v64.439m0-64.44h64.439m-128.879 0v64.44m64.44 0h-64.44m64.44 0v64.439m0-64.439h64.439m-128.879 0v64.439m64.44 0h-64.44m64.44 0v64.44m0-64.44h64.439m-128.879 0v64.44m64.44 0h-64.44m64.44 0v64.439m0-64.439h64.439m-128.879 0v64.439m64.44 0h-64.44m64.44 0v64.44m0-64.44h64.439m-128.879 0v64.44m64.44 0h-64.44m64.44 0v64.439m0-64.439h64.439m-128.879 0v64.439m64.44 0h-64.44m64.44 0v64.44m0-64.44h64.439m-128.879 0v64.44m64.44 0h-64.44m64.44 0v64.439m0-64.439h64.439m-128.879 0v64.439m64.44 0h-64.44m64.44 0v64.44m0-64.44h64.439m-128.879 0v64.44m64.44 0h-64.44m64.44 0v64.439m0-64.439h64.439m-128.879 0v64.439m64.44 0h-64.44m64.44 0v64.44m0-64.44h64.439m-128.879 0v64.44m64.44 0h-64.44m64.44 0v64.439m0-64.439h64.439m-128.879 0v64.439m64.44 0h-64.44m64.44 0v64.44m0-64.44h64.439m-128.879 0v64.44m64.44 0h-64.44m64.44 0v64.439m0-64.439h64.439m-128.879 0v64.439m64.44 0h-64.44m64.44 0v64.436m0-64.436h64.439m-128.879 0v64.436m64.44 0h-64.44m64.44 0v64.44m0-64.44h64.439m-128.879 0v64.44m64.44 0h-64.44m64.44 0v64.44m0-64.44h64.439m-128.879 0v64.44m64.44 0h-64.44m64.44 0v64.44m0-64.44h64.439m-128.879 0v64.44m64.44 0h-64.44m64.44 0v64.44m0-64.44h64.439m-128.879 0v64.44h64.44m0 0h64.439m0-1288.788v64.44m0-64.44h64.439m-64.439 64.44v64.439m0-64.44h64.439m-64.439 64.44v64.439m0-64.439h64.439m-64.439 64.439v64.44m0-64.44h64.439m-64.439 64.44v64.439m0-64.439h64.439m-64.439 64.439v64.44m0-64.44h64.439m-64.439 64.44v64.439m0-64.439h64.439m-64.439 64.439v64.44m0-64.44h64.439m-64.439 64.44v64.439m0-64.439h64.439m-64.439 64.439v64.44m0-64.44h64.439m-64.439 64.44v64.439m0-64.439h64.439m-64.439 64.439v64.44m0-64.44h64.439m-64.439 64.44v64.439m0-64.439h64.439m-64.439 64.439v64.44m0-64.44h64.439m-64.439 64.44v64.439m0-64.439h64.439m-64.439 64.439v64.436m0-64.436h64.439m-64.439 64.436v64.44m0-64.44h64.439m-64.439 64.44v64.44m0-64.44h64.439m-64.439 64.44v64.44m0-64.44h64.439m-64.439 64.44v64.44m0-64.44h64.439m-64.439 64.44h64.439m0-1288.788v64.44m0-64.44h64.44m-64.44 64.44v64.439m0-64.44h64.44m-64.44 64.44v64.439m0-64.439h64.44m-64.44 64.439v64.44m0-64.44h64.44m-64.44 64.44v64.439m0-64.439h64.44m-64.44 64.439v64.44m0-64.44h64.44m-64.44 64.44v64.439m0-64.439h64.44m-64.44 64.439v64.44m0-64.44h64.44m-64.44 64.44v64.439m0-64.439h64.44m-64.44 64.439v64.44m0-64.44h64.44m-64.44 64.44v64.439m0-64.439h64.44m-64.44 64.439v64.44m0-64.44h64.44m-64.44 64.44v64.439m0-64.439h64.44m-64.44 64.439v64.44m0-64.44h64.44m-64.44 64.44v64.439m0-64.439h64.44m-64.44 64.439v64.436m0-64.436h64.44m-64.44 64.436v64.44m0-64.44h64.44m-64.44 64.44v64.44m0-64.44h64.44m-64.44 64.44v64.44m0-64.44h64.44m-64.44 64.44v64.44m0-64.44h64.44m-64.44 64.44h64.44m0-1288.788v64.44m0-64.44h64.439m-64.439 64.44v64.439m0-64.44h64.439m-64.439 64.44v64.439m0-64.439h64.439m-64.44 64.439v64.44m0-64.44h64.439m-64.439 64.44v64.439m0-64.439h64.439m-64.439 64.439v64.44m0-64.44h64.439m-64.439 64.44v64.439m0-64.439h64.439m-64.439 64.439v64.44m0-64.44h64.439m-64.439 64.44v64.439m0-64.439h64.439m-64.439 64.439v64.44m0-64.44h64.439m-64.439 64.44v64.439m0-64.439h64.439m-64.439 64.439v64.44m0-64.44h64.439m-64.439 64.44v64.439m0-64.439h64.439m-64.439 64.439v64.44m0-64.44h64.439m-64.439 64.44v64.439m0-64.439h64.439m-64.439 64.439v64.436m0-64.436h64.439m-64.439 64.436v64.44m0-64.44h64.439m-64.439 64.44v64.44m0-64.44h64.439m-64.439 64.44v64.44m0-64.44h64.439m-64.439 64.44v64.44m0-64.44h64.439m-64.439 64.44h64.439m0-1288.788v64.44m0-64.44h64.44m-64.44 64.44v64.439m0-64.44h64.44m-64.44 64.44v64.439m0-64.439h64.44m-64.44 64.439v64.44m0-64.44h64.44m-64.44 64.44v64.439m0-64.439h64.44m-64.44 64.439v64.44m0-64.44h64.44m-64.44 64.44v64.439m0-64.439h64.44m-64.44 64.439v64.44m0-64.44h64.44m-64.44 64.44v64.439m0-64.439h64.44m-64.44 64.439v64.44m0-64.44h64.44m-64.44 64.44v64.439m0-64.439h64.44m-64.44 64.439v64.44m0-64.44h64.44m-64.44 64.44v64.439m0-64.439h64.44m-64.44 64.439v64.44m0-64.44h64.44m-64.44 64.44v64.439m0-64.439h64.44m-64.44 64.439v64.436m0-64.436h64.44m-64.44 64.436v64.44m0-64.44h64.44m-64.44 64.44v64.44m0-64.44h64.44m-64.44 64.44v64.44m0-64.44h64.44m-64.44 64.44v64.44m0-64.44h64.44m-64.44 64.44h64.44m0-1288.788v64.44m0-64.44h64.439m-64.439 64.44v64.439m0-64.44h64.439m-64.439 64.44v64.439m0-64.439h64.439m-64.439 64.439v64.44m0-64.44h64.439m-64.439 64.44v64.439m0-64.439h64.439m-64.439 64.439v64.44m0-64.44h64.439m-64.439 64.44v64.439m0-64.439h64.439m-64.439 64.439v64.44m0-64.44h64.439m-64.439 64.44v64.439m0-64.439h64.439m-64.439 64.439v64.44m0-64.44h64.439m-64.439 64.44v64.439m0-64.439h64.439m-64.439 64.439v64.44m0-64.44h64.439m-64.439 64.44v64.439m0-64.439h64.439m-64.439 64.439v64.44m0-64.44h64.439m-64.439 64.44v64.439m0-64.439h64.439m-64.439 64.439v64.436m0-64.436h64.439m-64.439 64.436v64.44m0-64.44h64.439m-64.439 64.44v64.44m0-64.44h64.439m-64.439 64.44v64.44m0-64.44h64.439m-64.439 64.44v64.44m0-64.44h64.439m-64.439 64.44h64.439m0-1288.788v64.44m0-64.44h64.44m-64.44 64.44v64.439m0-64.44h64.44m-64.44 64.44v64.439m0-64.439h64.44m-64.44 64.439v64.44m0-64.44h64.44m-64.44 64.44v64.439m0-64.439h64.44m-64.44 64.439v64.44m0-64.44h64.44m-64.44 64.44v64.439m0-64.439h64.44m-64.44 64.439v64.44m0-64.44h64.44m-64.44 64.44v64.439m0-64.439h64.44m-64.44 64.439v64.44m0-64.44h64.44m-64.44 64.44v64.439m0-64.439h64.44m-64.44 64.439v64.44m0-64.44h64.44m-64.44 64.44v64.439m0-64.439h64.44m-64.44 64.439v64.44m0-64.44h64.44m-64.44 64.44v64.439m0-64.439h64.44m-64.44 64.439v64.436m0-64.436h64.44m-64.44 64.436v64.44m0-64.44h64.44m-64.44 64.44v64.44m0-64.44h64.44m-64.44 64.44v64.44m0-64.44h64.44m-64.44 64.44v64.44m0-64.44h64.44m-64.44 64.44h64.44m0-1288.788v64.44m0-64.44h64.439m-64.439 64.44v64.439m0-64.44h64.439m-64.439 64.44v64.439m0-64.439h64.439m-64.439 64.439v64.44m0-64.44h64.439m-64.439 64.44v64.439m0-64.439h64.439m-64.439 64.439v64.44m0-64.44h64.439m-64.439 64.44v64.439m0-64.439h64.439m-64.439 64.439v64.44m0-64.44h64.439m-64.439 64.44v64.439m0-64.439h64.439m-64.439 64.439v64.44m0-64.44h64.439m-64.439 64.44v64.439m0-64.439h64.439m-64.439 64.439v64.44m0-64.44h64.439m-64.439 64.44v64.439m0-64.439h64.439m-64.439 64.439v64.44m0-64.44h64.439m-64.439 64.44v64.439m0-64.439h64.439m-64.439 64.439v64.436m0-64.436h64.439m-64.439 64.436v64.44m0-64.44h64.439m-64.439 64.44v64.44m0-64.44h64.439m-64.439 64.44v64.44m0-64.44h64.439m-64.439 64.44v64.44m0-64.44h64.439m-64.439 64.44h64.439m0-1288.788v64.44m0-64.44h64.44m-64.44 64.44v64.439m0-64.44h64.44m-64.44 64.44v64.439m0-64.439h64.44m-64.44 64.439v64.44m0-64.44h64.44m-64.44 64.44v64.439m0-64.439h64.44m-64.44 64.439v64.44m0-64.44h64.44m-64.44 64.44v64.439m0-64.439h64.44m-64.44 64.439v64.44m0-64.44h64.44m-64.44 64.44v64.439m0-64.439h64.44m-64.44 64.439v64.44m0-64.44h64.44m-64.44 64.44v64.439m0-64.439h64.44m-64.44 64.439v64.44m0-64.44h64.44m-64.44 64.44v64.439m0-64.439h64.44m-64.44 64.439v64.44m0-64.44h64.44m-64.44 64.44v64.439m0-64.439h64.44m-64.44 64.439v64.436m0-64.436h64.44m-64.44 64.436v64.44m0-64.44h64.44m-64.44 64.44v64.44m0-64.44h64.44m-64.44 64.44v64.44m0-64.44h64.44m-64.44 64.44v64.44m0-64.44h64.44m-64.44 64.44h64.44m0-1288.788v64.44m0-64.44h64.439m-64.439 64.44v64.439m0-64.44h64.439m-64.439 64.44v64.439m0-64.439h64.439m-64.439 64.439v64.44m0-64.44h64.439m-64.439 64.44v64.439m0-64.439h64.439m-64.439 64.439v64.44m0-64.44h64.439m-64.439 64.44v64.439m0-64.439h64.439m-64.439 64.439v64.44m0-64.44h64.439m-64.439 64.44v64.439m0-64.439h64.439m-64.439 64.439v64.44m0-64.44h64.439m-64.439 64.44v64.439m0-64.439h64.439m-64.439 64.439v64.44m0-64.44h64.439m-64.439 64.44v64.439m0-64.439h64.439m-64.439 64.439v64.44m0-64.44h64.439m-64.439 64.44v64.439m0-64.439h64.439m-64.439 64.439v64.436m0-64.436h64.439m-64.439 64.436v64.44m0-64.44h64.439m-64.439 64.44v64.44m0-64.44h64.439m-64.439 64.44v64.44m0-64.44h64.439m-64.439 64.44v64.44m0-64.44h64.439m-64.439 64.44h64.439m0-1288.788v64.44m0-64.44h64.44m-64.44 64.44v64.439m0-64.44h64.44m-64.44 64.44v64.439m0-64.439h64.44m-64.44 64.439v64.44m0-64.44h64.44m-64.44 64.44v64.439m0-64.439h64.44m-64.44 64.439v64.44m0-64.44h64.44m-64.44 64.44v64.439m0-64.439h64.44m-64.44 64.439v64.44m0-64.44h64.44m-64.44 64.44v64.439m0-64.439h64.44m-64.44 64.439v64.44m0-64.44h64.44m-64.44 64.44v64.439m0-64.439h64.44m-64.44 64.439v64.44m0-64.44h64.44m-64.44 64.44v64.439m0-64.439h64.44m-64.44 64.439v64.44m0-64.44h64.44m-64.44 64.44v64.439m0-64.439h64.44m-64.44 64.439v64.436m0-64.436h64.44m-64.44 64.436v64.44m0-64.44h64.44m-64.44 64.44v64.44m0-64.44h64.44m-64.44 64.44v64.44m0-64.44h64.44m-64.44 64.44v64.44m0-64.44h64.44m-64.44 64.44h64.44m0-1288.788v64.44m0-64.44h64.439m-64.439 64.44v64.439m0-64.44h64.439m-64.439 64.44v64.439m0-64.439h64.439m-64.439 64.439v64.44m0-64.44h64.439m-64.439 64.44v64.439m0-64.439h64.439m-64.439 64.439v64.44m0-64.44h64.439m-64.439 64.44v64.439m0-64.439h64.439m-64.439 64.439v64.44m0-64.44h64.439m-64.439 64.44v64.439m0-64.439h64.439m-64.439 64.439v64.44m0-64.44h64.439m-64.439 64.44v64.439m0-64.439h64.439m-64.439 64.439v64.44m0-64.44h64.439m-64.439 64.44v64.439m0-64.439h64.439m-64.439 64.439v64.44m0-64.44h64.439m-64.439 64.44v64.439m0-64.439h64.439m-64.439 64.439v64.436m0-64.436h64.439m-64.439 64.436v64.44m0-64.44h64.439m-64.439 64.44v64.44m0-64.44h64.439m-64.439 64.44v64.44m0-64.44h64.439m-64.439 64.44v64.44m0-64.44h64.439m-64.439 64.44h64.439m0-1288.788v64.44m0-64.44h64.44m-64.44 64.44v64.439m0-64.44h64.44m-64.44 64.44v64.439m0-64.439h64.44m-64.44 64.439v64.44m0-64.44h64.44m-64.44 64.44v64.439m0-64.439h64.44m-64.44 64.439v64.44m0-64.44h64.44m-64.44 64.44v64.439m0-64.439h64.44m-64.44 64.439v64.44m0-64.44h64.44m-64.44 64.44v64.439m0-64.439h64.44m-64.44 64.439v64.44m0-64.44h64.44m-64.44 64.44v64.439m0-64.439h64.44m-64.44 64.439v64.44m0-64.44h64.44m-64.44 64.44v64.439m0-64.439h64.44m-64.44 64.439v64.44m0-64.44h64.44m-64.44 64.44v64.439m0-64.439h64.44m-64.44 64.439v64.436m0-64.436h64.44m-64.44 64.436v64.44m0-64.44h64.44m-64.44 64.44v64.44m0-64.44h64.44m-64.44 64.44v64.44m0-64.44h64.44m-64.44 64.44v64.44m0-64.44h64.44m-64.44 64.44h64.44m0-1288.788v64.44m0-64.44h64.439m-64.439 64.44v64.439m0-64.44h64.439m-64.439 64.44v64.439m0-64.439h64.439m-64.439 64.439v64.44m0-64.44h64.439m-64.439 64.44v64.439m0-64.439h64.439m-64.439 64.439v64.44m0-64.44h64.439m-64.439 64.44v64.439m0-64.439h64.439m-64.439 64.439v64.44m0-64.44h64.439m-64.439 64.44v64.439m0-64.439h64.439m-64.439 64.439v64.44m0-64.44h64.439m-64.439 64.44v64.439m0-64.439h64.439m-64.439 64.439v64.44m0-64.44h64.439m-64.439 64.44v64.439m0-64.439h64.439m-64.439 64.439v64.44m0-64.44h64.439m-64.439 64.44v64.439m0-64.439h64.439m-64.439 64.439v64.436m0-64.436h64.439m-64.439 64.436v64.44m0-64.44h64.439m-64.439 64.44v64.44m0-64.44h64.439m-64.439 64.44v64.44m0-64.44h64.439m-64.439 64.44v64.44m0-64.44h64.439m-64.439 64.44h64.439m0-1288.788v64.44m0-64.44h64.436m-64.436 64.44v64.439m0-64.44h64.436m-64.436 64.44v64.439m0-64.439h64.436m-64.436 64.439v64.44m0-64.44h64.436m-64.436 64.44v64.439m0-64.439h64.436m-64.436 64.439v64.44m0-64.44h64.436m-64.436 64.44v64.439m0-64.439h64.436m-64.436 64.439v64.44m0-64.44h64.436m-64.436 64.44v64.439m0-64.439h64.436m-64.436 64.439v64.44m0-64.44h64.436m-64.436 64.44v64.439m0-64.439h64.436m-64.436 64.439v64.44m0-64.44h64.436m-64.436 64.44v64.439m0-64.439h64.436m-64.436 64.439v64.44m0-64.44h64.436m-64.436 64.44v64.439m0-64.439h64.436m-64.436 64.439v64.436m0-64.436h64.436m-64.436 64.436v64.44m0-64.44h64.436m-64.436 64.44v64.44m0-64.44h64.436m-64.436 64.44v64.44m0-64.44h64.436m-64.436 64.44v64.44m0-64.44h64.436m-64.436 64.44h64.436m0-1288.788v64.44m0-64.44h64.44m-64.44 64.44v64.439m0-64.44h64.44m-64.44 64.44v64.439m0-64.439h64.44m-64.44 64.439v64.44m0-64.44h64.44m-64.44 64.44v64.439m0-64.439h64.44m-64.44 64.439v64.44m0-64.44h64.44m-64.44 64.44v64.439m0-64.439h64.44m-64.44 64.439v64.44m0-64.44h64.44m-64.44 64.44v64.439m0-64.439h64.44m-64.44 64.439v64.44m0-64.44h64.44m-64.44 64.44v64.439m0-64.439h64.44m-64.44 64.439v64.44m0-64.44h64.44m-64.44 64.44v64.439m0-64.439h64.44m-64.44 64.439v64.44m0-64.44h64.44m-64.44 64.44v64.439m0-64.439h64.44m-64.44 64.439v64.436m0-64.436h64.44m-64.44 64.436v64.44m0-64.44h64.44m-64.44 64.44v64.44m0-64.44h64.44m-64.44 64.44v64.44m0-64.44h64.44m-64.44 64.44v64.44m0-64.44h64.44m-64.44 64.44h64.44m0-1288.788v64.44m0-64.44h64.44m-64.44 64.44v64.439m0-64.44h64.44m-64.44 64.44v64.439m0-64.439h64.44m-64.44 64.439v64.44m0-64.44h64.44m-64.44 64.44v64.439m0-64.439h64.44m-64.44 64.439v64.44m0-64.44h64.44m-64.44 64.44v64.439m0-64.439h64.44m-64.44 64.439v64.44m0-64.44h64.44m-64.44 64.44v64.439m0-64.439h64.44m-64.44 64.439v64.44m0-64.44h64.44m-64.44 64.44v64.439m0-64.439h64.44m-64.44 64.439v64.44m0-64.44h64.44m-64.44 64.44v64.439m0-64.439h64.44m-64.44 64.439v64.44m0-64.44h64.44m-64.44 64.44v64.439m0-64.439h64.44m-64.44 64.439v64.436m0-64.436h64.44m-64.44 64.436v64.44m0-64.44h64.44m-64.44 64.44v64.44m0-64.44h64.44m-64.44 64.44v64.44m0-64.44h64.44m-64.44 64.44v64.44m0-64.44h64.44m-64.44 64.44h64.44m0-1288.788v64.44m0-64.44h64.44m-64.44 64.44v64.439m0-64.44h64.44m-64.44 64.44v64.439m0-64.439h64.44m-64.44 64.439v64.44m0-64.44h64.44m-64.44 64.44v64.439m0-64.439h64.44m-64.44 64.439v64.44m0-64.44h64.44m-64.44 64.44v64.439m0-64.439h64.44m-64.44 64.439v64.44m0-64.44h64.44m-64.44 64.44v64.439m0-64.439h64.44m-64.44 64.439v64.44m0-64.44h64.44m-64.44 64.44v64.439m0-64.439h64.44m-64.44 64.439v64.44m0-64.44h64.44m-64.44 64.44v64.439m0-64.439h64.44m-64.44 64.439v64.44m0-64.44h64.44m-64.44 64.44v64.439m0-64.439h64.44m-64.44 64.439v64.436m0-64.436h64.44m-64.44 64.436v64.44m0-64.44h64.44m-64.44 64.44v64.44m0-64.44h64.44m-64.44 64.44v64.44m0-64.44h64.44m-64.44 64.44v64.44m0-64.44h64.44m-64.44 64.44h64.44m0-1288.788v64.44m0-64.44h64.44m-64.44 64.44v64.439m0-64.44h64.44m-64.44 64.44v64.439m0-64.439h64.44m-64.44 64.439v64.44m0-64.44h64.44m-64.44 64.44v64.439m0-64.439h64.44m-64.44 64.439v64.44m0-64.44h64.44m-64.44 64.44v64.439m0-64.439h64.44m-64.44 64.439v64.44m0-64.44h64.44m-64.44 64.44v64.439m0-64.439h64.44m-64.44 64.439v64.44m0-64.44h64.44m-64.44 64.44v64.439m0-64.439h64.44m-64.44 64.439v64.44m0-64.44h64.44m-64.44 64.44v64.439m0-64.439h64.44m-64.44 64.439v64.44m0-64.44h64.44m-64.44 64.44v64.439m0-64.439h64.44m-64.44 64.439v64.436m0-64.436h64.44m-64.44 64.436v64.44m0-64.44h64.44m-64.44 64.44v64.44m0-64.44h64.44m-64.44 64.44v64.44m0-64.44h64.44m-64.44 64.44v64.44m0-64.44h64.44m-64.44 64.44h64.44m0-1288.788v64.44m0-64.44h64.44m-64.44 64.44v64.439m0-64.44h64.44m-64.44 64.44v64.439m0-64.439h64.44m-64.44 64.439v64.44m0-64.44h64.44m-64.44 64.44v64.439m0-64.439h64.44m-64.44 64.439v64.44m0-64.44h64.44m-64.44 64.44v64.439m0-64.439h64.44m-64.44 64.439v64.44m0-64.44h64.44m-64.44 64.44v64.439m0-64.439h64.44m-64.44 64.439v64.44m0-64.44h64.44m-64.44 64.44v64.439m0-64.439h64.44m-64.44 64.439v64.44m0-64.44h64.44m-64.44 64.44v64.439m0-64.439h64.44m-64.44 64.439v64.44m0-64.44h64.44m-64.44 64.44v64.439m0-64.439h64.44m-64.44 64.439v64.436m0-64.436h64.44m-64.44 64.436v64.44m0-64.44h64.44m-64.44 64.44v64.44m0-64.44h64.44m-64.44 64.44v64.44m0-64.44h64.44m-64.44 64.44v64.44m0-64.44h64.44m-64.44 64.44h64.44m0-1288.788v64.44m0-64.44H1437m-64.44 64.44v64.439m0-64.44H1437m-64.44 64.44v64.439m0-64.439H1437m-64.44 64.439v64.44m0-64.44H1437m-64.44 64.44v64.439m0-64.439H1437m-64.44 64.439v64.44m0-64.44H1437m-64.44 64.44v64.439m0-64.439H1437m-64.44 64.439v64.44m0-64.44H1437m-64.44 64.44v64.439m0-64.439H1437m-64.44 64.439v64.44m0-64.44H1437m-64.44 64.44v64.439m0-64.439H1437m-64.44 64.439v64.44m0-64.44H1437m-64.44 64.44v64.439m0-64.439H1437m-64.44 64.439v64.44m0-64.44H1437m-64.44 64.44v64.439m0-64.439H1437m-64.44 64.439v64.436m0-64.436H1437m-64.44 64.436v64.44m0-64.44H1437m-64.44 64.44v64.44m0-64.44H1437m-64.44 64.44v64.44m0-64.44H1437m-64.44 64.44v64.44m0-64.44H1437m-64.44 64.44H1437m0-1288.788v64.44m0-64.44h64.44M1437 83.772v64.439m0-64.44h64.44m-64.44 64.44v64.439m0-64.439h64.44M1437 212.65v64.44m0-64.44h64.44M1437 277.09v64.439m0-64.439h64.44M1437 341.529v64.44m0-64.44h64.44m-64.44 64.44v64.439m0-64.439h64.44M1437 470.408v64.44m0-64.44h64.44m-64.44 64.44v64.439m0-64.439h64.44M1437 599.287v64.44m0-64.44h64.44m-64.44 64.44v64.439m0-64.439h64.44M1437 728.166v64.44m0-64.44h64.44m-64.44 64.44v64.439m0-64.439h64.44M1437 857.045v64.44m0-64.44h64.44m-64.44 64.44v64.439m0-64.439h64.44M1437 985.924v64.436m0-64.436h64.44M1437 1050.36v64.44m0-64.44h64.44M1437 1114.8v64.44m0-64.44h64.44m-64.44 64.44v64.44m0-64.44h64.44m-64.44 64.44v64.44m0-64.44h64.44m-64.44 64.44h64.44m0-1288.788v64.44m0-64.44h64.44m-64.44 64.44v64.439m0-64.44h64.44m-64.44 64.44v64.439m0-64.439h64.44m-64.44 64.439v64.44m0-64.44h64.44m-64.44 64.44v64.439m0-64.439h64.44m-64.44 64.439v64.44m0-64.44h64.44m-64.44 64.44v64.439m0-64.439h64.44m-64.44 64.439v64.44m0-64.44h64.44m-64.44 64.44v64.439m0-64.439h64.44m-64.44 64.439v64.44m0-64.44h64.44m-64.44 64.44v64.439m0-64.439h64.44m-64.44 64.439v64.44m0-64.44h64.44m-64.44 64.44v64.439m0-64.439h64.44m-64.44 64.439v64.44m0-64.44h64.44m-64.44 64.44v64.439m0-64.439h64.44m-64.44 64.439v64.436m0-64.436h64.44m-64.44 64.436v64.44m0-64.44h64.44m-64.44 64.44v64.44m0-64.44h64.44m-64.44 64.44v64.44m0-64.44h64.44m-64.44 64.44v64.44m0-64.44h64.44m-64.44 64.44h64.44m0-1288.788v64.44m0-64.44h64.44m-64.44 64.44v64.439m0-64.44h64.44m-64.44 64.44v64.439m0-64.439h64.44m-64.44 64.439v64.44m0-64.44h64.44m-64.44 64.44v64.439m0-64.439h64.44m-64.44 64.439v64.44m0-64.44h64.44m-64.44 64.44v64.439m0-64.439h64.44m-64.44 64.439v64.44m0-64.44h64.44m-64.44 64.44v64.439m0-64.439h64.44m-64.44 64.439v64.44m0-64.44h64.44m-64.44 64.44v64.439m0-64.439h64.44m-64.44 64.439v64.44m0-64.44h64.44m-64.44 64.44v64.439m0-64.439h64.44m-64.44 64.439v64.44m0-64.44h64.44m-64.44 64.44v64.439m0-64.439h64.44m-64.44 64.439v64.436m0-64.436h64.44m-64.44 64.436v64.44m0-64.44h64.44m-64.44 64.44v64.44m0-64.44h64.44m-64.44 64.44v64.44m0-64.44h64.44m-64.44 64.44v64.44m0-64.44h64.44m-64.44 64.44h64.44m0-1288.788v64.44m0-64.44h64.44m-64.44 64.44v64.439m0-64.44h64.44m-64.44 64.44v64.439m0-64.439h64.44m-64.44 64.439v64.44m0-64.44h64.44m-64.44 64.44v64.439m0-64.439h64.44m-64.44 64.439v64.44m0-64.44h64.44m-64.44 64.44v64.439m0-64.439h64.44m-64.44 64.439v64.44m0-64.44h64.44m-64.44 64.44v64.439m0-64.439h64.44m-64.44 64.439v64.44m0-64.44h64.44m-64.44 64.44v64.439m0-64.439h64.44m-64.44 64.439v64.44m0-64.44h64.44m-64.44 64.44v64.439m0-64.439h64.44m-64.44 64.439v64.44m0-64.44h64.44m-64.44 64.44v64.439m0-64.439h64.44m-64.44 64.439v64.436m0-64.436h64.44m-64.44 64.436v64.44m0-64.44h64.44m-64.44 64.44v64.44m0-64.44h64.44m-64.44 64.44v64.44m0-64.44h64.44m-64.44 64.44v64.44m0-64.44h64.44m-64.44 64.44h64.44m0-1288.788v64.44m0-64.44h64.44m-64.44 64.44v64.439m0-64.44h64.44m-64.44 64.44v64.439m0-64.439h64.44m-64.44 64.439v64.44m0-64.44h64.44m-64.44 64.44v64.439m0-64.439h64.44m-64.44 64.439v64.44m0-64.44h64.44m-64.44 64.44v64.439m0-64.439h64.44m-64.44 64.439v64.44m0-64.44h64.44m-64.44 64.44v64.439m0-64.439h64.44m-64.44 64.439v64.44m0-64.44h64.44m-64.44 64.44v64.439m0-64.439h64.44m-64.44 64.439v64.44m0-64.44h64.44m-64.44 64.44v64.439m0-64.439h64.44m-64.44 64.439v64.44m0-64.44h64.44m-64.44 64.44v64.439m0-64.439h64.44m-64.44 64.439v64.436m0-64.436h64.44m-64.44 64.436v64.44m0-64.44h64.44m-64.44 64.44v64.44m0-64.44h64.44m-64.44 64.44v64.44m0-64.44h64.44m-64.44 64.44v64.44m0-64.44h64.44m-64.44 64.44h64.44m0-1288.788v64.44m0-64.44h64.44m-64.44 64.44v64.439m0-64.44h64.44m-64.44 64.44v64.439m0-64.439h64.44m-64.44 64.439v64.44m0-64.44h64.44m-64.44 64.44v64.439m0-64.439h64.44m-64.44 64.439v64.44m0-64.44h64.44m-64.44 64.44v64.439m0-64.439h64.44m-64.44 64.439v64.44m0-64.44h64.44m-64.44 64.44v64.439m0-64.439h64.44m-64.44 64.439v64.44m0-64.44h64.44m-64.44 64.44v64.439m0-64.439h64.44m-64.44 64.439v64.44m0-64.44h64.44m-64.44 64.44v64.439m0-64.439h64.44m-64.44 64.439v64.44m0-64.44h64.44m-64.44 64.44v64.439m0-64.439h64.44m-64.44 64.439v64.436m0-64.436h64.44m-64.44 64.436v64.44m0-64.44h64.44m-64.44 64.44v64.44m0-64.44h64.44m-64.44 64.44v64.44m0-64.44h64.44m-64.44 64.44v64.44m0-64.44h64.44m-64.44 64.44h64.44m0-1288.788v64.44m0-64.44h64.44m-64.44 64.44v64.439m0-64.44h64.44m-64.44 64.44v64.439m0-64.439h64.44m-64.44 64.439v64.44m0-64.44h64.44m-64.44 64.44v64.439m0-64.439h64.44m-64.44 64.439v64.44m0-64.44h64.44m-64.44 64.44v64.439m0-64.439h64.44m-64.44 64.439v64.44m0-64.44h64.44m-64.44 64.44v64.439m0-64.439h64.44m-64.44 64.439v64.44m0-64.44h64.44m-64.44 64.44v64.439m0-64.439h64.44m-64.44 64.439v64.44m0-64.44h64.44m-64.44 64.44v64.439m0-64.439h64.44m-64.44 64.439v64.44m0-64.44h64.44m-64.44 64.44v64.439m0-64.439h64.44m-64.44 64.439v64.436m0-64.436h64.44m-64.44 64.436v64.44m0-64.44h64.44m-64.44 64.44v64.44m0-64.44h64.44m-64.44 64.44v64.44m0-64.44h64.44m-64.44 64.44v64.44m0-64.44h64.44m-64.44 64.44h64.44m0-1288.788v64.44m0-64.44h64.44m-64.44 64.44v64.439m0-64.44h64.44m-64.44 64.44v64.439m0-64.439h64.44m-64.44 64.439v64.44m0-64.44h64.44m-64.44 64.44v64.439m0-64.439h64.44m-64.44 64.439v64.44m0-64.44h64.44m-64.44 64.44v64.439m0-64.439h64.44m-64.44 64.439v64.44m0-64.44h64.44m-64.44 64.44v64.439m0-64.439h64.44m-64.44 64.439v64.44m0-64.44h64.44m-64.44 64.44v64.439m0-64.439h64.44m-64.44 64.439v64.44m0-64.44h64.44m-64.44 64.44v64.439m0-64.439h64.44m-64.44 64.439v64.44m0-64.44h64.44m-64.44 64.44v64.439m0-64.439h64.44m-64.44 64.439v64.436m0-64.436h64.44m-64.44 64.436v64.44m0-64.44h64.44m-64.44 64.44v64.44m0-64.44h64.44m-64.44 64.44v64.44m0-64.44h64.44m-64.44 64.44v64.44m0-64.44h64.44m-64.44 64.44h64.44m0-1288.788v64.44m0-64.44h64.44m-64.44 64.44v64.439m0-64.44h64.44m-64.44 64.44v64.439m0-64.439h64.44m-64.44 64.439v64.44m0-64.44h64.44m-64.44 64.44v64.439m0-64.439h64.44m-64.44 64.439v64.44m0-64.44h64.44m-64.44 64.44v64.439m0-64.439h64.44m-64.44 64.439v64.44m0-64.44h64.44m-64.44 64.44v64.439m0-64.439h64.44m-64.44 64.439v64.44m0-64.44h64.44m-64.44 64.44v64.439m0-64.439h64.44m-64.44 64.439v64.44m0-64.44h64.44m-64.44 64.44v64.439m0-64.439h64.44m-64.44 64.439v64.44m0-64.44h64.44m-64.44 64.44v64.439m0-64.439h64.44m-64.44 64.439v64.436m0-64.436h64.44m-64.44 64.436v64.44m0-64.44h64.44m-64.44 64.44v64.44m0-64.44h64.44m-64.44 64.44v64.44m0-64.44h64.44m-64.44 64.44v64.44m0-64.44h64.44m-64.44 64.44h64.44m0-1288.788v64.44m0-64.44h64.44m-64.44 64.44v64.439m0-64.44h64.44m-64.44 64.44v64.439m0-64.439h64.44m-64.44 64.439v64.44m0-64.44h64.44m-64.44 64.44v64.439m0-64.439h64.44m-64.44 64.439v64.44m0-64.44h64.44m-64.44 64.44v64.439m0-64.439h64.44m-64.44 64.439v64.44m0-64.44h64.44m-64.44 64.44v64.439m0-64.439h64.44m-64.44 64.439v64.44m0-64.44h64.44m-64.44 64.44v64.439m0-64.439h64.44m-64.44 64.439v64.44m0-64.44h64.44m-64.44 64.44v64.439m0-64.439h64.44m-64.44 64.439v64.44m0-64.44h64.44m-64.44 64.44v64.439m0-64.439h64.44m-64.44 64.439v64.436m0-64.436h64.44m-64.44 64.436v64.44m0-64.44h64.44m-64.44 64.44v64.44m0-64.44h64.44m-64.44 64.44v64.44m0-64.44h64.44m-64.44 64.44v64.44m0-64.44h64.44m-64.44 64.44h64.44m0-1288.788v64.44m0-64.44h64.43m-64.43 64.44v64.439m0-64.44h64.43m-64.43 64.44v64.439m0-64.439h64.43m-64.43 64.439v64.44m0-64.44h64.43m-64.43 64.44v64.439m0-64.439h64.43m-64.43 64.439v64.44m0-64.44h64.43m-64.43 64.44v64.439m0-64.439h64.43m-64.43 64.439v64.44m0-64.44h64.43m-64.43 64.44v64.439m0-64.439h64.43m-64.43 64.439v64.44m0-64.44h64.43m-64.43 64.44v64.439m0-64.439h64.43m-64.43 64.439v64.44m0-64.44h64.43m-64.43 64.44v64.439m0-64.439h64.43m-64.43 64.439v64.44m0-64.44h64.43m-64.43 64.44v64.439m0-64.439h64.43m-64.43 64.439v64.436m0-64.436h64.43m-64.43 64.436v64.44m0-64.44h64.43m-64.43 64.44v64.44m0-64.44h64.43m-64.43 64.44v64.44m0-64.44h64.43m-64.43 64.44v64.44m0-64.44h64.43m-64.43 64.44h64.43m0-1288.788v64.44m0-64.44h64.44m-64.44 64.44v64.439m0-64.44h64.44m-64.44 64.44v64.439m0-64.439h64.44m-64.44 64.439v64.44m0-64.44h64.44m-64.44 64.44v64.439m0-64.439h64.44m-64.44 64.439v64.44m0-64.44h64.44m-64.44 64.44v64.439m0-64.439h64.44m-64.44 64.439v64.44m0-64.44h64.44m-64.44 64.44v64.439m0-64.439h64.44m-64.44 64.439v64.44m0-64.44h64.44m-64.44 64.44v64.439m0-64.439h64.44m-64.44 64.439v64.44m0-64.44h64.44m-64.44 64.44v64.439m0-64.439h64.44m-64.44 64.439v64.44m0-64.44h64.44m-64.44 64.44v64.439m0-64.439h64.44m-64.44 64.439v64.436m0-64.436h64.44m-64.44 64.436v64.44m0-64.44h64.44m-64.44 64.44v64.44m0-64.44h64.44m-64.44 64.44v64.44m0-64.44h64.44m-64.44 64.44v64.44m0-64.44h64.44m-64.44 64.44h64.44m0-1288.788v64.44m0-64.44h64.44m-64.44 64.44v64.439m0-64.44h64.44m-64.44 64.44v64.439m0-64.439h64.44m-64.44 64.439v64.44m0-64.44h64.44m-64.44 64.44v64.439m0-64.439h64.44m-64.44 64.439v64.44m0-64.44h64.44m-64.44 64.44v64.439m0-64.439h64.44m-64.44 64.439v64.44m0-64.44h64.44m-64.44 64.44v64.439m0-64.439h64.44m-64.44 64.439v64.44m0-64.44h64.44m-64.44 64.44v64.439m0-64.439h64.44m-64.44 64.439v64.44m0-64.44h64.44m-64.44 64.44v64.439m0-64.439h64.44m-64.44 64.439v64.44m0-64.44h64.44m-64.44 64.44v64.439m0-64.439h64.44m-64.44 64.439v64.436m0-64.436h64.44m-64.44 64.436v64.44m0-64.44h64.44m-64.44 64.44v64.44m0-64.44h64.44m-64.44 64.44v64.44m0-64.44h64.44m-64.44 64.44v64.44m0-64.44h64.44m-64.44 64.44h64.44m0-1288.788v64.44m0-64.44h64.44m-64.44 64.44v64.439m0-64.44h64.44m-64.44 64.44v64.439m0-64.439h64.44m-64.44 64.439v64.44m0-64.44h64.44m-64.44 64.44v64.439m0-64.439h64.44m-64.44 64.439v64.44m0-64.44h64.44m-64.44 64.44v64.439m0-64.439h64.44m-64.44 64.439v64.44m0-64.44h64.44m-64.44 64.44v64.439m0-64.439h64.44m-64.44 64.439v64.44m0-64.44h64.44m-64.44 64.44v64.439m0-64.439h64.44m-64.44 64.439v64.44m0-64.44h64.44m-64.44 64.44v64.439m0-64.439h64.44m-64.44 64.439v64.44m0-64.44h64.44m-64.44 64.44v64.439m0-64.439h64.44m-64.44 64.439v64.436m0-64.436h64.44m-64.44 64.436v64.44m0-64.44h64.44m-64.44 64.44v64.44m0-64.44h64.44m-64.44 64.44v64.44m0-64.44h64.44m-64.44 64.44v64.44m0-64.44h64.44m-64.44 64.44h64.44m0-1288.788v64.44m0-64.44h64.44m-64.44 64.44v64.439m0-64.44h64.44m-64.44 64.44v64.439m0-64.439h64.44m-64.44 64.439v64.44m0-64.44h64.44m-64.44 64.44v64.439m0-64.439h64.44m-64.44 64.439v64.44m0-64.44h64.44m-64.44 64.44v64.439m0-64.439h64.44m-64.44 64.439v64.44m0-64.44h64.44m-64.44 64.44v64.439m0-64.439h64.44m-64.44 64.439v64.44m0-64.44h64.44m-64.44 64.44v64.439m0-64.439h64.44m-64.44 64.439v64.44m0-64.44h64.44m-64.44 64.44v64.439m0-64.439h64.44m-64.44 64.439v64.44m0-64.44h64.44m-64.44 64.44v64.439m0-64.439h64.44m-64.44 64.439v64.436m0-64.436h64.44m-64.44 64.436v64.44m0-64.44h64.44m-64.44 64.44v64.44m0-64.44h64.44m-64.44 64.44v64.44m0-64.44h64.44m-64.44 64.44v64.44m0-64.44h64.44m-64.44 64.44h64.44m0-1288.788v64.44m0-64.44h64.44m-64.44 64.44v64.439m0-64.44h64.44m-64.44 64.44v64.439m0-64.439h64.44m-64.44 64.439v64.44m0-64.44h64.44m-64.44 64.44v64.439m0-64.439h64.44m-64.44 64.439v64.44m0-64.44h64.44m-64.44 64.44v64.439m0-64.439h64.44m-64.44 64.439v64.44m0-64.44h64.44m-64.44 64.44v64.439m0-64.439h64.44m-64.44 64.439v64.44m0-64.44h64.44m-64.44 64.44v64.439m0-64.439h64.44m-64.44 64.439v64.44m0-64.44h64.44m-64.44 64.44v64.439m0-64.439h64.44m-64.44 64.439v64.44m0-64.44h64.44m-64.44 64.44v64.439m0-64.439h64.44m-64.44 64.439v64.436m0-64.436h64.44m-64.44 64.436v64.44m0-64.44h64.44m-64.44 64.44v64.44m0-64.44h64.44m-64.44 64.44v64.44m0-64.44h64.44m-64.44 64.44v64.44m0-64.44h64.44m-64.44 64.44h64.44m0-1288.788v64.44m0-64.44h64.44m-64.44 64.44v64.439m0-64.44h64.44m-64.44 64.44v64.439m0-64.439h64.44m-64.44 64.439v64.44m0-64.44h64.44m-64.44 64.44v64.439m0-64.439h64.44m-64.44 64.439v64.44m0-64.44h64.44m-64.44 64.44v64.439m0-64.439h64.44m-64.44 64.439v64.44m0-64.44h64.44m-64.44 64.44v64.439m0-64.439h64.44m-64.44 64.439v64.44m0-64.44h64.44m-64.44 64.44v64.439m0-64.439h64.44m-64.44 64.439v64.44m0-64.44h64.44m-64.44 64.44v64.439m0-64.439h64.44m-64.44 64.439v64.44m0-64.44h64.44m-64.44 64.44v64.439m0-64.439h64.44m-64.44 64.439v64.436m0-64.436h64.44m-64.44 64.436v64.44m0-64.44h64.44m-64.44 64.44v64.44m0-64.44h64.44m-64.44 64.44v64.44m0-64.44h64.44m-64.44 64.44v64.44m0-64.44h64.44m-64.44 64.44h64.44m0-1288.788v64.44m0-64.44h64.44m-64.44 64.44v64.439m0-64.44h64.44m-64.44 64.44v64.439m0-64.439h64.44m-64.44 64.439v64.44m0-64.44h64.44m-64.44 64.44v64.439m0-64.439h64.44m-64.44 64.439v64.44m0-64.44h64.44m-64.44 64.44v64.439m0-64.439h64.44m-64.44 64.439v64.44m0-64.44h64.44m-64.44 64.44v64.439m0-64.439h64.44m-64.44 64.439v64.44m0-64.44h64.44m-64.44 64.44v64.439m0-64.439h64.44m-64.44 64.439v64.44m0-64.44h64.44m-64.44 64.44v64.439m0-64.439h64.44m-64.44 64.439v64.44m0-64.44h64.44m-64.44 64.44v64.439m0-64.439h64.44m-64.44 64.439v64.436m0-64.436h64.44m-64.44 64.436v64.44m0-64.44h64.44m-64.44 64.44v64.44m0-64.44h64.44m-64.44 64.44v64.44m0-64.44h64.44m-64.44 64.44v64.44m0-64.44h64.44m-64.44 64.44h64.44m0-1288.788v64.44m0-64.44h64.44m-64.44 64.44v64.439m0-64.44h64.44m-64.44 64.44v64.439m0-64.439h64.44m-64.44 64.439v64.44m0-64.44h64.44m-64.44 64.44v64.439m0-64.439h64.44m-64.44 64.439v64.44m0-64.44h64.44m-64.44 64.44v64.439m0-64.439h64.44m-64.44 64.439v64.44m0-64.44h64.44m-64.44 64.44v64.439m0-64.439h64.44m-64.44 64.439v64.44m0-64.44h64.44m-64.44 64.44v64.439m0-64.439h64.44m-64.44 64.439v64.44m0-64.44h64.44m-64.44 64.44v64.439m0-64.439h64.44m-64.44 64.439v64.44m0-64.44h64.44m-64.44 64.44v64.439m0-64.439h64.44m-64.44 64.439v64.436m0-64.436h64.44m-64.44 64.436v64.44m0-64.44h64.44m-64.44 64.44v64.44m0-64.44h64.44m-64.44 64.44v64.44m0-64.44h64.44m-64.44 64.44v64.44m0-64.44h64.44m-64.44 64.44h64.44m0-1288.788v64.44m0-64.44h64.44m-64.44 64.44v64.439m0-64.44h64.44m-64.44 64.44v64.439m0-64.439h64.44m-64.44 64.439v64.44m0-64.44h64.44m-64.44 64.44v64.439m0-64.439h64.44m-64.44 64.439v64.44m0-64.44h64.44m-64.44 64.44v64.439m0-64.439h64.44m-64.44 64.439v64.44m0-64.44h64.44m-64.44 64.44v64.439m0-64.439h64.44m-64.44 64.439v64.44m0-64.44h64.44m-64.44 64.44v64.439m0-64.439h64.44m-64.44 64.439v64.44m0-64.44h64.44m-64.44 64.44v64.439m0-64.439h64.44m-64.44 64.439v64.44m0-64.44h64.44m-64.44 64.44v64.439m0-64.439h64.44m-64.44 64.439v64.436m0-64.436h64.44m-64.44 64.436v64.44m0-64.44h64.44m-64.44 64.44v64.44m0-64.44h64.44m-64.44 64.44v64.44m0-64.44h64.44m-64.44 64.44v64.44m0-64.44h64.44m-64.44 64.44h64.44m0-1288.788v64.44m0-64.44h64.44m-64.44 64.44v64.439m0-64.44h64.44m-64.44 64.44v64.439m0-64.439h64.44m-64.44 64.439v64.44m0-64.44h64.44m-64.44 64.44v64.439m0-64.439h64.44m-64.44 64.439v64.44m0-64.44h64.44m-64.44 64.44v64.439m0-64.439h64.44m-64.44 64.439v64.44m0-64.44h64.44m-64.44 64.44v64.439m0-64.439h64.44m-64.44 64.439v64.44m0-64.44h64.44m-64.44 64.44v64.439m0-64.439h64.44m-64.44 64.439v64.44m0-64.44h64.44m-64.44 64.44v64.439m0-64.439h64.44m-64.44 64.439v64.44m0-64.44h64.44m-64.44 64.44v64.439m0-64.439h64.44m-64.44 64.439v64.436m0-64.436h64.44m-64.44 64.436v64.44m0-64.44h64.44m-64.44 64.44v64.44m0-64.44h64.44m-64.44 64.44v64.44m0-64.44h64.44m-64.44 64.44v64.44m0-64.44h64.44m-64.44 64.44h64.44m0-1288.788v64.44m0-64.44h64.44v64.44m-64.44 0v64.439m0-64.44h64.44m-64.44 64.44v64.439m0-64.439h64.44m-64.44 64.439v64.44m0-64.44h64.44m-64.44 64.44v64.439m0-64.439h64.44m-64.44 64.439v64.44m0-64.44h64.44m-64.44 64.44v64.439m0-64.439h64.44m-64.44 64.439v64.44m0-64.44h64.44m-64.44 64.44v64.439m0-64.439h64.44m-64.44 64.439v64.44m0-64.44h64.44m-64.44 64.44v64.439m0-64.439h64.44m-64.44 64.439v64.44m0-64.44h64.44m-64.44 64.44v64.439m0-64.439h64.44m-64.44 64.439v64.44m0-64.44h64.44m-64.44 64.44v64.439m0-64.439h64.44m-64.44 64.439v64.436m0-64.436h64.44m-64.44 64.436v64.44m0-64.44h64.44m-64.44 64.44v64.44m0-64.44h64.44m-64.44 64.44v64.44m0-64.44h64.44m-64.44 64.44v64.44m0-64.44h64.44m-64.44 64.44h64.44v-64.44m0-1159.909v64.44m0 0v64.439m0 0v64.44m0 0v64.439m0 0v64.44m0 0v64.439m0 0v64.44m0 0v64.439m0 0v64.44m0 0v64.439m0 0v64.44m0 0v64.439m0 0v64.44m0 0v64.439m0 0v64.436m0 0v64.44m0 0v64.44m0 0v64.44" opacity=".7" style="mix-blend-mode:soft-light"/><path stroke="url(#b)" stroke-opacity=".6" stroke-width="1.611" d="M277.09 257.758v19.332m0 0v19.332m0-19.332h-19.332m19.332 0h19.332M277.09 773.274v19.332m0 0v19.331m0-19.331h-19.332m19.332 0h19.332M277.09 1288.79v19.33m0 0v19.33m0-19.33h-19.332m19.332 0h19.332M792.606 257.758v19.332m0 0v19.332m0-19.332h-19.332m19.332 0h19.331m-19.331 496.184v19.332m0 0v19.331m0-19.331h-19.332m19.332 0h19.331m-19.331 496.184v19.33m0 0v19.33m0-19.33h-19.332m19.332 0h19.331M1308.12 257.758v19.332m0 0v19.332m0-19.332h-19.33m19.33 0h19.33m-19.33 496.184v19.332m0 0v19.331m0-19.331h-19.33m19.33 0h19.33m-19.33 496.184v19.33m0 0v19.33m0-19.33h-19.33m19.33 0h19.33m496.19-1050.362v19.332m0 0v19.332m0-19.332h-19.33m19.33 0h19.33m-19.33 496.184v19.332m0 0v19.331m0-19.331h-19.33m19.33 0h19.33m-19.33 496.184v19.33m0 0v19.33m0-19.33h-19.33m19.33 0h19.33m496.18-1050.362v19.332m0 0v19.332m0-19.332h-19.33m19.33 0h19.33m-19.33 496.184v19.332m0 0v19.331m0-19.331h-19.33m19.33 0h19.33m-19.33 496.184v19.33m0 0v19.33m0-19.33h-19.33m19.33 0h19.33m496.19-1050.362v19.332m0 0v19.332m0-19.332h-19.33m19.33 0H2874m-19.33 496.184v19.332m0 0v19.331m0-19.331h-19.33m19.33 0H2874m-19.33 496.184v19.33m0 0v19.33m0-19.33h-19.33m19.33 0H2874M277.09 0v19.332m0 0v19.332m0-19.332h-19.332m19.332 0h19.332M277.09 515.516v19.332m0 0v19.332m0-19.332h-19.332m19.332 0h19.332M277.09 1031.03v19.33m0 0v19.34m0-19.34h-19.332m19.332 0h19.332M792.606 0v19.332m0 0v19.332m0-19.332h-19.332m19.332 0h19.331m-19.331 496.184v19.332m0 0v19.332m0-19.332h-19.332m19.332 0h19.331m-19.331 496.182v19.33m0 0v19.34m0-19.34h-19.332m19.332 0h19.331M1308.12 0v19.332m0 0v19.332m0-19.332h-19.33m19.33 0h19.33m-19.33 496.184v19.332m0 0v19.332m0-19.332h-19.33m19.33 0h19.33m-19.33 496.182v19.33m0 0v19.34m0-19.34h-19.33m19.33 0h19.33M1823.64 0v19.332m0 0v19.332m0-19.332h-19.33m19.33 0h19.33m-19.33 496.184v19.332m0 0v19.332m0-19.332h-19.33m19.33 0h19.33m-19.33 496.182v19.33m0 0v19.34m0-19.34h-19.33m19.33 0h19.33M2339.15 0v19.332m0 0v19.332m0-19.332h-19.33m19.33 0h19.33m-19.33 496.184v19.332m0 0v19.332m0-19.332h-19.33m19.33 0h19.33m-19.33 496.182v19.33m0 0v19.34m0-19.34h-19.33m19.33 0h19.33M2854.67 0v19.332m0 0v19.332m0-19.332h-19.33m19.33 0H2874m-19.33 496.184v19.332m0 0v19.332m0-19.332h-19.33m19.33 0H2874m-19.33 496.182v19.33m0 0v19.34m0-19.34h-19.33m19.33 0H2874M19.332 257.758v19.332m0 0v19.332m0-19.332H0m19.332 0h19.332M19.332 773.274v19.332m0 0v19.331m0-19.331H0m19.332 0h19.332M19.332 1288.79v19.33m0 0v19.33m0-19.33H0m19.332 0h19.332M534.848 257.758v19.332m0 0v19.332m0-19.332h-19.332m19.332 0h19.332m-19.332 496.184v19.332m0 0v19.331m0-19.331h-19.332m19.332 0h19.332m-19.332 496.184v19.33m0 0v19.33m0-19.33h-19.332m19.332 0h19.332m496.18-1050.362v19.332m0 0v19.332m0-19.332h-19.33m19.33 0h19.34m-19.34 496.184v19.332m0 0v19.331m0-19.331h-19.33m19.33 0h19.34m-19.34 496.184v19.33m0 0v19.33m0-19.33h-19.33m19.33 0h19.34m496.18-1050.362v19.332m0 0v19.332m0-19.332h-19.33m19.33 0h19.33m-19.33 496.184v19.332m0 0v19.331m0-19.331h-19.33m19.33 0h19.33m-19.33 496.184v19.33m0 0v19.33m0-19.33h-19.33m19.33 0h19.33m496.18-1050.362v19.332m0 0v19.332m0-19.332h-19.33m19.33 0h19.34m-19.34 496.184v19.332m0 0v19.331m0-19.331h-19.33m19.33 0h19.34m-19.34 496.184v19.33m0 0v19.33m0-19.33h-19.33m19.33 0h19.34m496.18-1050.362v19.332m0 0v19.332m0-19.332h-19.33m19.33 0h19.33m-19.33 496.184v19.332m0 0v19.331m0-19.331h-19.33m19.33 0h19.33m-19.33 496.184v19.33m0 0v19.33m0-19.33h-19.33m19.33 0h19.33M19.332 0v19.332m0 0v19.332m0-19.332H0m19.332 0h19.332M19.332 515.516v19.332m0 0v19.332m0-19.332H0m19.332 0h19.332M19.332 1031.03v19.33m0 0v19.34m0-19.34H0m19.332 0h19.332M534.848 0v19.332m0 0v19.332m0-19.332h-19.332m19.332 0h19.332m-19.332 496.184v19.332m0 0v19.332m0-19.332h-19.332m19.332 0h19.332m-19.332 496.182v19.33m0 0v19.34m0-19.34h-19.332m19.332 0h19.332M1050.36 0v19.332m0 0v19.332m0-19.332h-19.33m19.33 0h19.34m-19.34 496.184v19.332m0 0v19.332m0-19.332h-19.33m19.33 0h19.34m-19.34 496.182v19.33m0 0v19.34m0-19.34h-19.33m19.33 0h19.34M1565.88 0v19.332m0 0v19.332m0-19.332h-19.33m19.33 0h19.33m-19.33 496.184v19.332m0 0v19.332m0-19.332h-19.33m19.33 0h19.33m-19.33 496.182v19.33m0 0v19.34m0-19.34h-19.33m19.33 0h19.33M2081.39 0v19.332m0 0v19.332m0-19.332h-19.33m19.33 0h19.34m-19.34 496.184v19.332m0 0v19.332m0-19.332h-19.33m19.33 0h19.34m-19.34 496.182v19.33m0 0v19.34m0-19.34h-19.33m19.33 0h19.34M2596.91 0v19.332m0 0v19.332m0-19.332h-19.33m19.33 0h19.33m-19.33 496.184v19.332m0 0v19.332m0-19.332h-19.33m19.33 0h19.33m-19.33 496.182v19.33m0 0v19.34m0-19.34h-19.33m19.33 0h19.33" opacity=".8" style="mix-blend-mode:soft-light"/><defs><radialGradient id="a" cx="0" cy="0" r="1" gradientTransform="matrix(0 644.395 -1417.67 0 1437 663.727)" gradientUnits="userSpaceOnUse"><stop stop-color="#C6FF5C"/><stop offset="1" stop-color="#C6FF5C" stop-opacity="0"/></radialGradient><radialGradient id="b" cx="0" cy="0" r="1" gradientTransform="scale(1437 663.726) rotate(90 0 1)" gradientUnits="userSpaceOnUse"><stop stop-color="#C6FF5C"/><stop offset="1" stop-color="#C6FF5C" stop-opacity="0"/></radialGradient></defs></svg>